<svg xmlns="http://www.w3.org/2000/svg">

    <symbol xmlns="http://www.w3.org/2000/svg" fill="none" viewBox="0 0 13 13" id="menu">
        <rect width="12.0921" height="2.5625" y=".09375" fill="#1F5FBF" rx="1.28125"/>
        <rect width="12.0921" height="2.5625" y="5.21875" fill="#1F5FBF" rx="1.28125"/>
        <rect width="12.0921" height="2.5625" y="10.3438" fill="#1F5FBF" rx="1.28125"/>
    </symbol>

    <symbol xmlns="http://www.w3.org/2000/svg" viewBox="0 0 25 22" fill="none" id="basket">
        <path stroke="#1F5FBF" stroke-width="2" d="M12.6348 8.02703H6.88477m0 0H2.25705c-.59779 0-1.06261.51864-.98374 1.11121C1.87734 13.6765 3.29436 21 5.13477 21H19.6348c2.4377 0 3.303-7.4469 3.4726-11.97546.0206-.54918-.4231-.99751-.9726-.99751v0h-5c0-4.32433-.5-7.02703-1.5-7.02703H9.63477c-2.4 0-2.83334 4.68468-2.75 7.02703z"/>
    </symbol>

    <symbol xmlns="http://www.w3.org/2000/svg" fill="none" viewBox="0 0 19 20" id="search">
        <path fill="#1F5FBF" d="M18.5729 17.8975l-3.5416-3.6725c1.1426-1.514 1.7627-3.3836 1.7604-5.30833 0-1.7141-.4888-3.38972-1.4044-4.81494-.9157-1.42523-2.2172-2.53606-3.7399-3.192015C10.1246.253755 8.44909.0821262 6.83259.416531 5.21608.750937 3.73122 1.57636 2.56578 2.78841 1.40034 4.00047.60667 5.54472.285126 7.22589-.0364171 8.90706.128611 10.6496.759341 12.2333c.630729 1.5836 1.698839 2.9371 3.069249 3.8894 1.37041.9523 2.98157 1.4606 4.62975 1.4606 1.85066.0024 3.64836-.6424 5.10416-1.8308l3.5313 3.6833c.0968.1016.212.1822.3389.2372.127.055.2631.0833.4006.0833.1376 0 .2737-.0283.4006-.0833.127-.055.2422-.1356.339-.2372.0977-.1007.1752-.2205.228-.3525.0529-.132.0801-.2736.0801-.4166 0-.143-.0272-.2846-.0801-.4167-.0528-.132-.1303-.2518-.228-.3525zM2.20834 8.91667c0-1.28558.36655-2.54229 1.05331-3.61121.68676-1.06891 1.66288-1.90204 2.80492-2.39401 1.14203-.49197 2.3987-.62069 3.61108-.36988 1.21235.2508 2.32605.86987 3.20015 1.77891.874.90904 1.4693 2.06723 1.7104 3.3281.2412 1.26088.1174 2.56782-.3556 3.75552-.4731 1.1877-1.2741 2.2029-2.3019 2.9171-1.0279.7143-2.23623 1.0955-3.47236 1.0955-1.65761 0-3.24732-.6848-4.41942-1.9038-1.1721-1.219-1.83058-2.8723-1.83058-4.59623z"/>
    </symbol>

    <symbol xmlns="http://www.w3.org/2000/svg" fill="none" viewBox="0 0 16 16" id="phone-call">
        <g clip-path="url(#clip0)">
            <path fill="#1F5FBF" d="M13.656 2.34229C10.5314-.781426 5.46601-.780676 2.34229 2.34401-.781426 5.4687-.780676 10.534 2.34401 13.6577c3.12469 3.1237 8.18999 3.123 11.31369-.0017 1.5002-1.5006 2.3428-3.5358 2.3423-5.65771-.0004-2.12156-.8436-4.15606-2.344-5.656zm-1.5403 8.80161c-.0003.0004-.0007.0007-.001.0011v-.0027l-.4054.4027c-.5242.5308-1.2877.7492-2.01332.576-.73109-.1957-1.42609-.5072-2.05866-.9227-.58768-.3756-1.13231-.8146-1.624-1.30932-.4524-.44909-.85884-.94222-1.21334-1.472-.38775-.57006-.69466-1.19106-.912-1.84534-.24916-.76863-.04269-1.61203.53334-2.17866l.47466-.47466c.13197-.13256.34641-.13303.47894-.00106.00034.00035.00072.00069.00106.00106l1.49866 1.49866c.13256.13197.13303.34641.00106.47894l-.00106.00106-.88.88c-.2525.24975-.28425.64663-.07466.93334.31828.43682.6705.84785 1.05334 1.22935.42685.42868.89088.81865 1.38666 1.16533.28647.1998.67484.1661.92266-.08l.85066-.86399c.132-.13256.3464-.13303.4789-.00106.0004.00034.0007.00069.0011.00106l1.5013 1.50399c.1326.1319.1331.3464.0011.4789z"/>
        </g>
        <defs>
            <clipPath id="clip0">
                <path fill="#fff" d="M0 0h16v16H0z"/>
            </clipPath>
        </defs>
    </symbol>

    <symbol xmlns="http://www.w3.org/2000/svg" fill="none" viewBox="0 0 15 16" id="arrow-btn">
        <path fill="#1F5FBF" d="M14.7071 8.70711c.3905-.39053.3905-1.02369 0-1.41422L8.34315.928933c-.39053-.390525-1.02369-.390525-1.41422 0-.39052.390527-.39052 1.023687 0 1.414217L12.5858 8l-5.65687 5.6569c-.39052.3905-.39052 1.0236 0 1.4142.39053.3905 1.02369.3905 1.41421 0l6.36396-6.36399zM-9e-8 9H14V7H9e-8L-1e-7 9z"/>
    </symbol>

    <symbol xmlns="http://www.w3.org/2000/svg" fill="none" viewBox="0 0 30 30" id="instagram">
        <path fill="#fff" d="M23.007 8.79336c.9941 0 1.8-.80589 1.8-1.8s-.8059-1.8-1.8-1.8c-.9941 0-1.8.80589-1.8 1.8s.8059 1.8 1.8 1.8zM14.9994 7.29688c-1.5234-.00001-3.0126.45174-4.2793 1.2981-1.26667.84636-2.25392 2.04932-2.8369 3.45682-.58299 1.4074-.73552 2.9561-.43832 4.4503.2972 1.4941 1.03079 2.8665 2.10801 3.9438 1.07721 1.0772 2.44971 1.8108 3.94381 2.108 1.4941.2972 3.0428.1446 4.4503-.4383 1.4074-.583 2.6104-1.5703 3.4568-2.8369.8463-1.2667 1.2981-2.7559 1.2981-4.2793 0-2.0429-.8115-4.002-2.256-5.44652-1.4445-1.44449-3.4037-2.256-5.4465-2.256zm0 12.70252c-.9889 0-1.9556-.2933-2.7779-.8427-.8222-.5494-1.4631-1.3303-1.8415-2.2439-.3785-.9136-.47747-1.919-.2845-2.8889.1929-.9699.6691-1.8608 1.3683-2.5601.6993-.6992 1.5902-1.1754 2.5601-1.3684.9699-.19288 1.9753-.0939 2.8889.2846.9136.3784 1.6945 1.0193 2.2439 1.8415.5494.8223.8427 1.789.8427 2.7779 0 1.3261-.5268 2.5978-1.4645 3.5355-.9377.9377-2.2094 1.4645-3.5355 1.4645z"/>
        <path fill="#fff" d="M15 2.7025c4.005 0 4.48.015 6.0613.0875.951.01129 1.893.18591 2.7849.51625.6471.24962 1.2348.63193 1.7252 1.12235.4904.49042.8727 1.07807 1.1223 1.72515.3304.89191.505 1.83395.5163 2.785.0725 1.58125.0875 2.05625.0875 6.06245 0 4.0063-.015 4.4788-.0875 6.0601-.0113.951-.1859 1.893-.5163 2.7849-.2496.6471-.6319 1.2348-1.1223 1.7252-.4904.4904-1.0781.8727-1.7252 1.1223-.8919.3304-1.8339.505-2.7849.5163-1.5813.0725-2.0563.0875-6.0613.0875-4.005 0-4.48-.015-6.06125-.0875-.95105-.0113-1.89309-.1859-2.785-.5163-.64708-.2496-1.23473-.6319-1.72515-1.1223-.49042-.4904-.87273-1.0781-1.12235-1.7252-.33034-.8919-.50496-1.8339-.51625-2.7849C2.7175 19.48 2.7025 19.005 2.7025 15c0-4.005.015-4.48.0875-6.06125.01129-.95105.18591-1.89309.51625-2.785.24962-.64708.63193-1.23473 1.12235-1.72515.49042-.49042 1.07807-.87273 1.72515-1.12235.89191-.33034 1.83395-.50496 2.785-.51625C10.52 2.7175 10.995 2.7025 15 2.7025zM15 0c-4.0738 0-4.585.0175-6.185.09-1.24403.02512-2.4748.260962-3.64.6975-.9966.38537-1.90168.97472-2.65723 1.73027C1.76222 3.27332 1.17287 4.1784.7875 5.175.350823 6.34059.114979 7.5718.09 8.81625.0175 10.4163 0 10.925 0 15c0 4.075.0175 4.585.09 6.185.02512 1.244.260962 2.4748.6975 3.64.38537.9966.97472 1.9017 1.73027 2.6572.75555.7556 1.66063 1.3449 2.65723 1.7303 1.16559.4367 2.3968.6725 3.64125.6975C10.4163 29.9825 10.9262 30 15 30c4.0737 0 4.585-.0175 6.185-.09 1.2445-.025 2.4757-.2608 3.6413-.6975.9965-.3854 1.9016-.9747 2.6572-1.7303.7555-.7555 1.3449-1.6606 1.7303-2.6572.4362-1.1657.6716-2.3969.6962-3.6412.0725-1.6001.09-2.1088.09-6.1838 0-4.075-.0175-4.585-.09-6.185-.0251-1.24403-.261-2.4748-.6975-3.64-.3854-.9966-.9747-1.90168-1.7303-2.65723-.7555-.75555-1.6606-1.3449-2.6572-1.73027-1.1657-.43625-2.3969-.671671-3.6412-.6962501C19.5837.0162499 19.075 0 15 0z"/>
    </symbol>

    <symbol xmlns="http://www.w3.org/2000/svg" fill="none" viewBox="0 0 30 30" id="telegram">
        <path fill="#fff" d="M29.9133 4.46148L25.3865 25.8097c-.3418 1.5064-1.2321 1.8814-2.4975 1.1721l-6.8979-5.0828-3.3278 3.2014c-.3686.3686-.6761.6761-1.3865.6761l.4961-7.0243L24.5561 7.20112c.5561-.495-.121-.77036-.8635-.27429L7.88899 16.8783l-6.80357-2.13c-1.479641-.4618-1.506427-1.4797.30857-2.19L28.0051 2.30576c1.2321-.46178 2.31.27429 1.9082 2.15679v-.00107z"/>
    </symbol>

    <symbol xmlns="http://www.w3.org/2000/svg" fill="none" viewBox="0 0 27 27" id="whatsapp">
        <defs/>
        <g clip-path="url(#clip0)">
            <path fill="#fff" fill-rule="evenodd" d="M23.037 3.97093c-1.2419-1.24961-2.7194-2.24039-4.3469-2.91497C17.0625.381385 15.3173.0364251 13.5556.0410618 6.17022.0410618.153169 6.05251.153169 13.4378c-.005597 2.3516.61119 4.6629 1.787731 6.699L.0410156 27.0802 7.14708 25.214c1.96493 1.0704 4.16642 1.6321 6.40402 1.6341h.0056c7.3864 0 13.3968-6.0103 13.4012-13.4013 0-3.57882-1.3929-6.94343-3.9209-9.47699v.00112zM13.5556 24.5837h-.0045c-1.9946 0-3.95261-.5357-5.66941-1.5511l-.40712-.2411-4.21922 1.1047 1.12602-4.1105-.26244-.4205c-1.11638-1.7753-1.70741-3.8303-1.70474-5.9274 0-6.13702 4.9987-11.13123 11.14581-11.13123 1.463-.00366 2.9121.28292 4.2636.84313 1.3514.56022 2.5783 1.38294 3.6096 2.42055 1.0364 1.03262 1.858 2.26036 2.4172 3.61229.5592 1.35196.845 2.80126.8409 4.26426 0 6.1427-4.9987 11.1369-11.1369 11.1369h.0012zm6.1067-8.342c-.3331-.166-1.9806-.9758-2.2868-1.0857-.3062-.1144-.5305-.1671-.7537.166-.2243.3365-.8635 1.0913-1.0598 1.3145-.1929.2187-.3903.2501-.7234.083-.3365-.166-1.4143-.5216-2.6939-1.6644-.9948-.886-1.6689-1.9851-1.8618-2.3182-.1974-.3365-.0224-.5159.1447-.6842.1525-.148.3364-.3891.5036-.5865.1659-.1918.2243-.332.3364-.5563.1099-.2232.0539-.4206-.0303-.5866-.083-.166-.7525-1.81799-1.0329-2.48867-.27254-.65273-.54843-.56077-.75368-.5731-.1929-.00898-.41609-.00898-.63927-.00898-.22431 0-.58769.083-.89499.42058-.30618.3331-1.16977 1.14397-1.16977 2.79037 0 1.6476 1.20005 3.2413 1.36828 3.4656.16599.2187 2.36083 3.6001 5.71983 5.0514.7986.3454 1.4199.5518 1.9066.7054.8019.2535 1.5332.2187 2.1119.1346.6438-.0953 1.9795-.8097 2.2599-1.5937.277-.7795.277-1.4501.1929-1.5903-.083-.1402-.3062-.2243-.6438-.3948z" clip-rule="evenodd"/>
        </g>
        <defs>
            <clipPath id="clip0">
                <path fill="#fff" d="M0 0h27v27H0z"/>
            </clipPath>
        </defs>
    </symbol>

    <symbol xmlns="http://www.w3.org/2000/svg" fill="none" viewBox="0 0 33 21" id="vk">
        <g clip-path="url(#clip0)">
            <path fill="#fff" d="M32.3054 1.9203c.231-.77546 0-1.344128-1.0923-1.344128h-3.6185c-.9207 0-1.3414.491958-1.5724 1.032278 0 0-1.8398 4.53433-4.4468 7.47439-.8415.8555-1.2259 1.12566-1.6846 1.12566-.2294 0-.5627-.27016-.5627-1.04561V1.9203c0-.930551-.2656-1.344128-1.0329-1.344128h-5.6859c-.5742 0-.9207.430258-.9207.840498 0 .88051 1.3035 1.08397 1.4372 3.56543v5.3832c0 1.179-.2096 1.3941-.6716 1.3941-1.2259 0-4.20915-4.551-5.9796-9.76073C6.12975.986413 5.7816.57784 4.8576.57784H1.2408C.20625.57784 0 1.0698 0 1.61011c0 .97057 1.22595 5.7734 5.71065 12.12549 2.9898 4.3375 7.19895 6.6889 11.03355 6.6889 2.2985 0 2.5823-.522 2.5823-1.4225v-3.2786c0-1.0439.2194-1.2541.9471-1.2541.5346 0 1.4552.2735 3.6019 2.3631 2.4519 2.4781 2.8578 3.5904 4.2356 3.5904h3.6168c1.0329 0 1.5493-.5219 1.2523-1.5525-.325-1.0256-1.4965-2.5182-3.0508-4.2842-.8448-1.0073-2.1071-2.0913-2.4915-2.6332-.5363-.6988-.3812-1.0073 0-1.6277.0016.0017 4.4088-6.27198 4.8675-8.4049z"/>
        </g>
        <defs>
            <clipPath id="clip0">
                <path fill="#fff" d="M0 0h33v21H0z"/>
            </clipPath>
        </defs>
    </symbol>

</svg>