<svg xmlns="http://www.w3.org/2000/svg">

    <symbol xmlns="http://www.w3.org/2000/svg" fill="none" viewBox="0 0 13 13" id="menu">
        <rect width="12.0921" height="2.5625" y=".09375" fill="#1F5FBF" rx="1.28125"/>
        <rect width="12.0921" height="2.5625" y="5.21875" fill="#1F5FBF" rx="1.28125"/>
        <rect width="12.0921" height="2.5625" y="10.3438" fill="#1F5FBF" rx="1.28125"/>
    </symbol>

    <symbol xmlns="http://www.w3.org/2000/svg" viewBox="0 0 25 22" fill="none" id="basket">
        <path stroke="#1F5FBF" stroke-width="2" d="M12.6348 8.02703H6.88477m0 0H2.25705c-.59779 0-1.06261.51864-.98374 1.11121C1.87734 13.6765 3.29436 21 5.13477 21H19.6348c2.4377 0 3.303-7.4469 3.4726-11.97546.0206-.54918-.4231-.99751-.9726-.99751v0h-5c0-4.32433-.5-7.02703-1.5-7.02703H9.63477c-2.4 0-2.83334 4.68468-2.75 7.02703z"/>
    </symbol>

    <symbol xmlns="http://www.w3.org/2000/svg" fill="none" viewBox="0 0 19 20" id="search">
        <path fill="#1F5FBF" d="M18.5729 17.8975l-3.5416-3.6725c1.1426-1.514 1.7627-3.3836 1.7604-5.30833 0-1.7141-.4888-3.38972-1.4044-4.81494-.9157-1.42523-2.2172-2.53606-3.7399-3.192015C10.1246.253755 8.44909.0821262 6.83259.416531 5.21608.750937 3.73122 1.57636 2.56578 2.78841 1.40034 4.00047.60667 5.54472.285126 7.22589-.0364171 8.90706.128611 10.6496.759341 12.2333c.630729 1.5836 1.698839 2.9371 3.069249 3.8894 1.37041.9523 2.98157 1.4606 4.62975 1.4606 1.85066.0024 3.64836-.6424 5.10416-1.8308l3.5313 3.6833c.0968.1016.212.1822.3389.2372.127.055.2631.0833.4006.0833.1376 0 .2737-.0283.4006-.0833.127-.055.2422-.1356.339-.2372.0977-.1007.1752-.2205.228-.3525.0529-.132.0801-.2736.0801-.4166 0-.143-.0272-.2846-.0801-.4167-.0528-.132-.1303-.2518-.228-.3525zM2.20834 8.91667c0-1.28558.36655-2.54229 1.05331-3.61121.68676-1.06891 1.66288-1.90204 2.80492-2.39401 1.14203-.49197 2.3987-.62069 3.61108-.36988 1.21235.2508 2.32605.86987 3.20015 1.77891.874.90904 1.4693 2.06723 1.7104 3.3281.2412 1.26088.1174 2.56782-.3556 3.75552-.4731 1.1877-1.2741 2.2029-2.3019 2.9171-1.0279.7143-2.23623 1.0955-3.47236 1.0955-1.65761 0-3.24732-.6848-4.41942-1.9038-1.1721-1.219-1.83058-2.8723-1.83058-4.59623z"/>
    </symbol>

</svg>