<svg xmlns="http://www.w3.org/2000/svg">

    <symbol xmlns="http://www.w3.org/2000/svg" fill="none" viewBox="0 0 120 53" id="logo">
        <path fill="#1F5FBF" d="M4.788 40.18c-.552 0-.996-.168-1.332-.504-.336-.336-.504-.792-.504-1.368V16.312c0-.552.168-.996.504-1.332.336-.36.78-.54 1.332-.54.576 0 1.032.168 1.368.504.336.336.504.792.504 1.368v21.996c0 .576-.168 1.032-.504 1.368-.312.336-.768.504-1.368.504z"/>
        <path fill="#224156" d="M19.2097 40.252c-1.728 0-3.252-.372-4.572-1.116-1.296-.744-2.304-1.8-3.024-3.168-.696-1.392-1.044-3-1.044-4.824 0-1.848.348-3.456 1.044-4.824.72-1.392 1.728-2.46 3.024-3.204 1.32-.744 2.844-1.116 4.572-1.116 1.728 0 3.24.372 4.536 1.116 1.32.744 2.328 1.812 3.024 3.204.72 1.368 1.08 2.976 1.08 4.824 0 1.824-.36 3.432-1.08 4.824-.696 1.368-1.704 2.424-3.024 3.168-1.296.744-2.808 1.116-4.536 1.116zm0-2.88c1.608 0 2.832-.528 3.672-1.584.864-1.056 1.296-2.604 1.296-4.644 0-2.016-.432-3.552-1.296-4.608-.864-1.08-2.088-1.62-3.672-1.62s-2.808.54-3.672 1.62c-.864 1.056-1.296 2.592-1.296 4.608 0 2.04.42 3.588 1.26 4.644.864 1.056 2.1 1.584 3.708 1.584zM33.122 40.18c-.552 0-.996-.156-1.332-.468-.336-.312-.504-.732-.504-1.26V23.8c0-.528.168-.948.504-1.26.336-.312.78-.468 1.332-.468s.984.156 1.296.468c.336.312.504.732.504 1.26v5.76h8.64V23.8c0-.528.168-.948.504-1.26.336-.312.78-.468 1.332-.468s.984.156 1.296.468c.336.312.504.732.504 1.26l.036 14.544c0 .552-.168.996-.504 1.332-.336.336-.78.504-1.332.504s-.996-.168-1.332-.504c-.336-.336-.504-.78-.504-1.332V32.44h-8.64v6.012c0 .528-.168.948-.504 1.26-.312.312-.744.468-1.296.468zm53.0322.072c-1.728 0-3.252-.372-4.572-1.116-1.296-.744-2.304-1.8-3.024-3.168-.696-1.392-1.044-3-1.044-4.824 0-1.848.348-3.456 1.044-4.824.72-1.392 1.728-2.46 3.024-3.204 1.32-.744 2.844-1.116 4.572-1.116 1.728 0 3.24.372 4.536 1.116 1.32.744 2.328 1.812 3.024 3.204.72 1.368 1.08 2.976 1.08 4.824 0 1.824-.36 3.432-1.08 4.824-.696 1.368-1.704 2.424-3.024 3.168-1.296.744-2.808 1.116-4.536 1.116zm0-2.88c1.608 0 2.832-.528 3.672-1.584.864-1.056 1.296-2.604 1.296-4.644 0-2.016-.432-3.552-1.296-4.608-.864-1.08-2.088-1.62-3.672-1.62s-2.808.54-3.672 1.62c-.864 1.056-1.296 2.592-1.296 4.608 0 2.04.42 3.588 1.26 4.644.864 1.056 2.1 1.584 3.708 1.584zm28.8888-15.3c.576 0 1.032.156 1.368.468.336.312.504.744.504 1.296v14.688c0 .48-.156.876-.468 1.188-.312.312-.72.468-1.224.468-.48 0-.888-.156-1.224-.468-.312-.312-.468-.72-.468-1.224l.036-10.404-4.356 8.028c-.168.312-.396.564-.684.756-.288.168-.6.252-.936.252-.36 0-.684-.084-.972-.252-.288-.192-.516-.444-.684-.756l-4.356-8.028.036 10.404c0 .504-.168.912-.504 1.224-.312.312-.708.468-1.1885.468-.504 0-.912-.156-1.224-.468-.312-.312-.468-.708-.468-1.188v-14.58c0-.552.156-.996.468-1.332.336-.36.768-.54 1.296-.54.4805 0 .8885.084 1.2245.252.36.168.66.504.9 1.008l5.472 10.296 5.328-10.116c.288-.528.588-.9.9-1.116.312-.216.72-.324 1.224-.324z"/>
        <g clip-path="url(#clip0)">
            <path fill="#224156" d="M74.2264 26.5116l-.0016-.0016-9.7375-9.7371c-.4151-.4152-.9669-.644-1.5539-.644-.5869 0-1.1388.2286-1.554.6438l-9.7324 9.7322c-.0032.0033-.0065.0067-.0098.01-.8523.8572-.8509 2.2481.0042 3.1032.3906.3908.9066.6172 1.4582.6408.0224.0022.045.0033.0678.0033h.3881v7.1659c0 1.418 1.1537 2.5718 2.5721 2.5718h3.8096c.3861 0 .6993-.3131.6993-.6994v-5.618c0-.6471.5264-1.1734 1.1734-1.1734h2.247c.6471 0 1.1734.5263 1.1734 1.1734v5.618c0 .3863.3131.6994.6994.6994h3.8096c1.4184 0 2.5721-1.1538 2.5721-2.5718v-7.1659h.3599c.5868 0 1.1386-.2285 1.554-.6438.856-.8565.8563-2.2497.0011-3.1068z"/>
        </g>
        <path fill="#224156" d="M63.9302 4.98925c2.3741 0 4.651.94311 6.3297 2.62186 1.6788 1.67876 2.6219 3.95559 2.6219 6.32979 0 .2638.1048.5167.2913.7033.1865.1865.4395.2913.7033.2913.2638 0 .5168-.1048.7033-.2913.1865-.1866.2913-.4395.2913-.7033 0-2.9017-1.1527-5.68459-3.2045-7.7364C69.6147 4.15269 66.8319 3 63.9302 3c-.2638 0-.5168.10479-.7033.29132-.1866.18653-.2914.43951-.2914.7033s.1048.51678.2914.70331c.1865.18653.4395.29132.7033.29132z"/>
        <path fill="#224156" d="M63.9799 8.66879c1.3849 0 2.7131.55015 3.6924 1.52941.9792.9793 1.5294 2.3075 1.5294 3.6924 0 .2769.11.5426.3059.7384.1958.1959.4615.3059.7384.3059.277 0 .5426-.11.7385-.3059.1959-.1958.3059-.4615.3059-.7384 0-1.9389-.7702-3.7983-2.1412-5.16933-1.371-1.37098-3.2304-2.14119-5.1693-2.14119-.277 0-.5426.11003-.7385.30588-.1958.19586-.3059.46149-.3059.73847 0 .27698.1101.54262.3059.73847.1959.19586.4615.30589.7385.30589zM63.8307 13.1458c.2374 0 .4651.0943.633.2622s.2622.3955.2622.633c0 .2374.0943.4651.2622.6329.1678.1679.3955.2622.6329.2622s.4651-.0943.633-.2622c.1679-.1678.2622-.3955.2622-.6329 0-.7123-.2829-1.3953-.7866-1.899-.5036-.5036-1.1867-.7865-1.8989-.7865-.2374 0-.4651.0943-.633.2622-.1678.1678-.2622.3955-.2622.6329s.0944.4651.2622.633c.1679.1679.3956.2622.633.2622z"/>
        <defs>
            <clipPath id="clip0">
                <path fill="#fff" d="M0 0h23.871v23.871H0z" transform="translate(51 16.1289)"/>
            </clipPath>
        </defs>
    </symbol>

    <symbol xmlns="http://www.w3.org/2000/svg" fill="none" viewBox="0 0 120 53" id="logo-fill">
        <path fill="#fff" d="M4.788 40.18c-.552 0-.996-.168-1.332-.504-.336-.336-.504-.792-.504-1.368V16.312c0-.552.168-.996.504-1.332.336-.36.78-.54 1.332-.54.576 0 1.032.168 1.368.504.336.336.504.792.504 1.368v21.996c0 .576-.168 1.032-.504 1.368-.312.336-.768.504-1.368.504zm14.4217.072c-1.728 0-3.252-.372-4.572-1.116-1.296-.744-2.304-1.8-3.024-3.168-.696-1.392-1.044-3-1.044-4.824 0-1.848.348-3.456 1.044-4.824.72-1.392 1.728-2.46 3.024-3.204 1.32-.744 2.844-1.116 4.572-1.116 1.728 0 3.24.372 4.536 1.116 1.32.744 2.328 1.812 3.024 3.204.72 1.368 1.08 2.976 1.08 4.824 0 1.824-.36 3.432-1.08 4.824-.696 1.368-1.704 2.424-3.024 3.168-1.296.744-2.808 1.116-4.536 1.116zm0-2.88c1.608 0 2.832-.528 3.672-1.584.864-1.056 1.296-2.604 1.296-4.644 0-2.016-.432-3.552-1.296-4.608-.864-1.08-2.088-1.62-3.672-1.62s-2.808.54-3.672 1.62c-.864 1.056-1.296 2.592-1.296 4.608 0 2.04.42 3.588 1.26 4.644.864 1.056 2.1 1.584 3.708 1.584zM33.122 40.18c-.552 0-.996-.156-1.332-.468-.336-.312-.504-.732-.504-1.26V23.8c0-.528.168-.948.504-1.26.336-.312.78-.468 1.332-.468s.984.156 1.296.468c.336.312.504.732.504 1.26v5.76h8.64V23.8c0-.528.168-.948.504-1.26.336-.312.78-.468 1.332-.468s.984.156 1.296.468c.336.312.504.732.504 1.26l.036 14.544c0 .552-.168.996-.504 1.332-.336.336-.78.504-1.332.504s-.996-.168-1.332-.504c-.336-.336-.504-.78-.504-1.332V32.44h-8.64v6.012c0 .528-.168.948-.504 1.26-.312.312-.744.468-1.296.468zm53.0322.072c-1.728 0-3.252-.372-4.572-1.116-1.296-.744-2.304-1.8-3.024-3.168-.696-1.392-1.044-3-1.044-4.824 0-1.848.348-3.456 1.044-4.824.72-1.392 1.728-2.46 3.024-3.204 1.32-.744 2.844-1.116 4.572-1.116 1.728 0 3.24.372 4.536 1.116 1.32.744 2.328 1.812 3.024 3.204.72 1.368 1.08 2.976 1.08 4.824 0 1.824-.36 3.432-1.08 4.824-.696 1.368-1.704 2.424-3.024 3.168-1.296.744-2.808 1.116-4.536 1.116zm0-2.88c1.608 0 2.832-.528 3.672-1.584.864-1.056 1.296-2.604 1.296-4.644 0-2.016-.432-3.552-1.296-4.608-.864-1.08-2.088-1.62-3.672-1.62s-2.808.54-3.672 1.62c-.864 1.056-1.296 2.592-1.296 4.608 0 2.04.42 3.588 1.26 4.644.864 1.056 2.1 1.584 3.708 1.584zm28.8888-15.3c.576 0 1.032.156 1.368.468.336.312.504.744.504 1.296v14.688c0 .48-.156.876-.468 1.188-.312.312-.72.468-1.224.468-.48 0-.888-.156-1.224-.468-.312-.312-.468-.72-.468-1.224l.036-10.404-4.356 8.028c-.168.312-.396.564-.684.756-.288.168-.6.252-.936.252-.36 0-.684-.084-.972-.252-.288-.192-.516-.444-.684-.756l-4.356-8.028.036 10.404c0 .504-.168.912-.504 1.224-.312.312-.708.468-1.1885.468-.504 0-.912-.156-1.224-.468-.312-.312-.468-.708-.468-1.188v-14.58c0-.552.156-.996.468-1.332.336-.36.768-.54 1.296-.54.4805 0 .8885.084 1.2245.252.36.168.66.504.9 1.008l5.472 10.296 5.328-10.116c.288-.528.588-.9.9-1.116.312-.216.72-.324 1.224-.324z"/>
        <g clip-path="url(#clip0)">
            <path fill="#fff" d="M74.2264 26.5116l-.0016-.0016-9.7375-9.7371c-.4151-.4152-.9669-.644-1.5539-.644-.5869 0-1.1388.2286-1.554.6438l-9.7324 9.7322c-.0032.0033-.0065.0067-.0098.01-.8523.8572-.8509 2.2481.0042 3.1032.3906.3908.9066.6172 1.4582.6408.0224.0022.045.0033.0678.0033h.3881v7.1659c0 1.418 1.1537 2.5718 2.5721 2.5718h3.8096c.3861 0 .6993-.3131.6993-.6994v-5.618c0-.6471.5264-1.1734 1.1734-1.1734h2.247c.6471 0 1.1734.5263 1.1734 1.1734v5.618c0 .3863.3131.6994.6994.6994h3.8096c1.4184 0 2.5721-1.1538 2.5721-2.5718v-7.1659h.3599c.5868 0 1.1386-.2285 1.554-.6438.856-.8565.8563-2.2497.0011-3.1068z"/>
        </g>
        <path fill="#fff" d="M63.9302 4.98925c2.3741 0 4.651.94311 6.3297 2.62186 1.6788 1.67876 2.6219 3.95559 2.6219 6.32979 0 .2638.1048.5167.2913.7033.1865.1865.4395.2913.7033.2913.2638 0 .5168-.1048.7033-.2913.1865-.1866.2913-.4395.2913-.7033 0-2.9017-1.1527-5.68459-3.2045-7.7364C69.6147 4.15269 66.8319 3 63.9302 3c-.2638 0-.5168.10479-.7033.29132-.1866.18653-.2914.43951-.2914.7033s.1048.51678.2914.70331c.1865.18653.4395.29132.7033.29132z"/>
        <path fill="#fff" d="M63.9799 8.66879c1.3849 0 2.7131.55015 3.6924 1.52941.9792.9793 1.5294 2.3075 1.5294 3.6924 0 .2769.11.5426.3059.7384.1958.1959.4615.3059.7384.3059.277 0 .5426-.11.7385-.3059.1959-.1958.3059-.4615.3059-.7384 0-1.9389-.7702-3.7983-2.1412-5.16933-1.371-1.37098-3.2304-2.14119-5.1693-2.14119-.277 0-.5426.11003-.7385.30588-.1958.19586-.3059.46149-.3059.73847 0 .27698.1101.54262.3059.73847.1959.19586.4615.30589.7385.30589zM63.8307 13.1458c.2374 0 .4651.0943.633.2622s.2622.3955.2622.633c0 .2374.0943.4651.2622.6329.1678.1679.3955.2622.6329.2622s.4651-.0943.633-.2622c.1679-.1678.2622-.3955.2622-.6329 0-.7123-.2829-1.3953-.7866-1.899-.5036-.5036-1.1867-.7865-1.8989-.7865-.2374 0-.4651.0943-.633.2622-.1678.1678-.2622.3955-.2622.6329s.0944.4651.2622.633c.1679.1679.3956.2622.633.2622z"/>
        <defs>
            <clipPath id="clip0">
                <path fill="#fff" d="M0 0h23.871v23.871H0z" transform="translate(51 16.1289)"/>
            </clipPath>
        </defs>
    </symbol>

    <symbol xmlns="http://www.w3.org/2000/svg" viewBox="0 0 139 53" id="logo-old">
        <path fill="#1F5FBF" d="M20.376 15.484c.264-.384.552-.648.864-.792.312-.168.744-.252 1.296-.252s.984.156 1.296.468c.336.312.504.756.504 1.332v22.104c0 .552-.168.996-.504 1.332-.336.336-.78.504-1.332.504s-.996-.168-1.332-.504c-.336-.336-.504-.78-.504-1.332V20.128L7.128 38.848c-.384.528-.744.888-1.08 1.08-.336.168-.768.252-1.296.252-.552 0-.996-.156-1.332-.468-.312-.312-.468-.756-.468-1.332V16.276c0-.552.168-.996.504-1.332.336-.336.78-.504 1.332-.504s.996.168 1.332.504c.336.336.504.78.504 1.332v18.18l13.752-18.972z"/>
        <path fill="#224156" d="M36.1732 40.252c-1.7279 0-3.252-.372-4.572-1.116-1.296-.744-2.304-1.8-3.024-3.168-.696-1.392-1.044-3-1.044-4.824 0-1.848.348-3.456 1.044-4.824.72-1.392 1.728-2.46 3.024-3.204 1.32-.744 2.8441-1.116 4.572-1.116 1.728 0 3.2401.372 4.5361 1.116 1.32.744 2.328 1.812 3.024 3.204.72 1.368 1.08 2.976 1.08 4.824 0 1.824-.36 3.432-1.08 4.824-.696 1.368-1.704 2.424-3.024 3.168-1.296.744-2.8081 1.116-4.5361 1.116zm0-2.88c1.608 0 2.832-.528 3.672-1.584.8641-1.056 1.2961-2.604 1.2961-4.644 0-2.016-.432-3.552-1.2961-4.608-.8639-1.08-2.0879-1.62-3.672-1.62-1.584 0-2.808.54-3.6719 1.62-.864 1.056-1.296 2.592-1.296 4.608 0 2.04.42 3.588 1.2599 4.644.864 1.056 2.1 1.584 3.708 1.584zm13.1924 2.808c-.552 0-.996-.156-1.332-.468-.336-.312-.504-.732-.504-1.26V23.8c0-.528.168-.948.504-1.26.336-.312.78-.468 1.332-.468s.984.156 1.296.468c.336.312.504.732.504 1.26v5.76h8.64V23.8c0-.528.168-.948.504-1.26.336-.312.78-.468 1.332-.468s.984.156 1.296.468c.336.312.504.732.504 1.26l.036 14.544c0 .552-.168.996-.504 1.332-.336.336-.78.504-1.332.504s-.996-.168-1.332-.504c-.336-.336-.504-.78-.504-1.332V32.44h-8.64v6.012c0 .528-.168.948-.504 1.26-.312.312-.744.468-1.296.468zm50.1522.072c-1.728 0-3.252-.372-4.572-1.116-1.296-.744-2.304-1.8-3.024-3.168-.696-1.392-1.044-3-1.044-4.824 0-1.848.348-3.456 1.044-4.824.72-1.392 1.728-2.46 3.024-3.204 1.32-.744 2.844-1.116 4.572-1.116 1.7282 0 3.2402.372 4.5362 1.116 1.32.744 2.328 1.812 3.024 3.204.72 1.368 1.08 2.976 1.08 4.824 0 1.824-.36 3.432-1.08 4.824-.696 1.368-1.704 2.424-3.024 3.168-1.296.744-2.808 1.116-4.5362 1.116zm0-2.88c1.6082 0 2.8322-.528 3.6722-1.584.864-1.056 1.296-2.604 1.296-4.644 0-2.016-.432-3.552-1.296-4.608-.864-1.08-2.088-1.62-3.6722-1.62-1.584 0-2.808.54-3.672 1.62-.864 1.056-1.296 2.592-1.296 4.608 0 2.04.42 3.588 1.26 4.644.864 1.056 2.1 1.584 3.708 1.584zm28.1682-15.3c.576 0 1.032.156 1.368.468.336.312.504.744.504 1.296v14.688c0 .48-.156.876-.468 1.188-.312.312-.72.468-1.224.468-.48 0-.888-.156-1.224-.468-.312-.312-.468-.72-.468-1.224l.036-10.404-4.356 8.028c-.168.312-.396.564-.684.756-.288.168-.6.252-.936.252-.36 0-.684-.084-.972-.252-.288-.192-.516-.444-.684-.756l-4.356-8.028.036 10.404c0 .504-.168.912-.504 1.224-.312.312-.708.468-1.188.468-.504 0-.912-.156-1.224-.468-.312-.312-.468-.708-.468-1.188v-14.58c0-.552.156-.996.468-1.332.336-.36.768-.54 1.296-.54.48 0 .888.084 1.224.252.36.168.66.504.9 1.008l5.472 10.296 5.328-10.116c.288-.528.588-.9.9-1.116.312-.216.72-.324 1.224-.324z"/>
        <g clip-path="url(#clip0)">
            <path fill="#224156" d="M88.2441 26.876l-.0016-.0016-9.4742-9.4739c-.4039-.404-.9408-.6266-1.5119-.6266s-1.108.2224-1.512.6264l-9.4694 9.4692c-.0032.0032-.0064.0065-.0095.0097-.8293.8341-.8279 2.1874.004 3.0193.3801.3803.8821.6005 1.4189.6236.0218.0021.0437.0032.0659.0032h.3776v6.9722c0 1.3797 1.1225 2.5022 2.5026 2.5022h3.7066c.3757 0 .6805-.3046.6805-.6804v-5.4662c0-.6296.5121-1.1417 1.1417-1.1417h2.1862c.6296 0 1.1417.5121 1.1417 1.1417v5.4662c0 .3758.3046.6804.6805.6804h3.7066c1.38 0 2.5026-1.1225 2.5026-2.5022v-6.9722h.3501c.571 0 1.1079-.2224 1.5121-.6264.8328-.8334.8332-2.189.001-3.0229z"/>
        </g>
        <path fill="#224156" d="M78.2256 5.93548c2.3099 0 4.5252.91763 6.1586 2.55101 1.6334 1.63341 2.551 3.84871 2.551 6.15871 0 .2566.102.5028.2835.6843.1815.1814.4276.2834.6843.2834.2566 0 .5028-.102.6843-.2834.1815-.1815.2834-.4277.2834-.6843 0-2.8233-1.1215-5.53095-3.1179-7.5273C83.7565 5.12154 81.0488 4 78.2256 4c-.2567 0-.5029.10196-.6843.28345-.1815.18148-.2835.42763-.2835.68429 0 .25666.102.50281.2835.6843.1814.18149.4276.28344.6843.28344z"/>
        <path fill="#224156" d="M78.2739 9.51663c1.3475 0 2.6398.53527 3.5926 1.48807.9528.9528 1.4881 2.2451 1.4881 3.5926 0 .2695.107.5279.2976.7185s.449.2976.7185.2976.528-.107.7185-.2976c.1906-.1906.2976-.449.2976-.7185 0-1.8865-.7493-3.6957-2.0833-5.0296-1.3339-1.33393-3.1431-2.08332-5.0296-2.08332-.2695-.00001-.5279.10705-.7185.29761-.1905.19056-.2976.44902-.2976.71851 0 .2695.1071.52795.2976.71852.1906.19056.449.29761.7185.29761zM78.1288 13.8718c.231 0 .4525.0918.6158.2551.1634.1634.2551.3849.2551.6159 0 .231.0918.4525.2551.6159.1634.1633.3849.2551.6159.2551.231 0 .4525-.0918.6159-.2551.1633-.1634.2551-.3849.2551-.6159 0-.693-.2753-1.3576-.7653-1.8476s-1.1546-.7653-1.8476-.7653c-.231 0-.4525.0917-.6159.2551-.1633.1633-.2551.3849-.2551.6159 0 .2309.0918.4525.2551.6158.1634.1634.3849.2551.6159.2551z"/>
        <defs>
            <clipPath id="clip0">
                <path fill="#fff" d="M0 0h23.2258v23.2258H0z" transform="translate(65.6445 16.7739)"/>
            </clipPath>
        </defs>
    </symbol>

</svg>